<?xml version="1.0" encoding="utf-8"?>
<!-- Generator: Adobe Illustrator 28.0.0, SVG Export Plug-In . SVG Version: 6.00 Build 0)  -->
<svg version="1.1" id="_レイヤー_1" xmlns="http://www.w3.org/2000/svg" xmlns:xlink="http://www.w3.org/1999/xlink" x="0px"
	 y="0px" viewBox="0 0 82.7 71.6" style="enable-background:new 0 0 82.7 71.6;" xml:space="preserve">
<style type="text/css">
	.st0{fill:#FFFFFF;}
</style>
<path class="st0" d="M55.9,4.2h2.1c0.6,0,1.1,0.5,1.1,1.1v6.3c0,0.6-0.5,1.1-1.1,1.1H39c-0.6,0-1.1,0.5-1.1,1.1c0,0.7,0,1.4,0,2.1
	c0,0.6-0.5,1.1-1.1,1.1c-0.7,0-1.4,0-2.1,0c-0.6,0-1.1,0.5-1.1,1.1v2c0,0.6,0.5,1.1,1.1,1.1h2.1c0.6,0,1.1-0.5,1.1-1.1v-2.1
	c0-0.6,0.5-1.1,1.1-1.1h18.9c0.6,0,1.1,0.5,1.1,1.1v6.3c0,0.6-0.5,1.1-1.1,1.1h-2c-0.6,0-1.1,0.5-1.1,1.1v2.1c0,0.6-0.5,1.1-1.1,1.1
	h-6.3c-0.6,0-1.1,0.5-1.1,1.1v2.1c0,0.6,0.5,1.1,1.1,1.1h2c0.6,0,1.1,0.5,1.1,1.1v2.1c0,0.6-0.5,1.1-1.1,1.1h-6.2
	c-0.6,0-1.1,0.5-1.1,1.1v19c0,0.6,0.5,1.1,1.1,1.1h2c0.6,0,1.1,0.5,1.1,1.1v2.1c0,0.6,0.5,1.1,1.1,1.1h19c0.6,0,1.1-0.5,1.1-1.1v-2
	c0-0.6,0.5-1.1,1.1-1.1h6.3c0.6,0,1.1,0.5,1.1,1.1v6.2c0,0.6-0.5,1.1-1.1,1.1H64.3c-0.6,0-1.1,0.5-1.1,1.1v2.1
	c0,0.6-0.5,1.1-1.1,1.1H34.8c-0.6,0-1.1-0.5-1.1-1.1v-2.1c0-0.6-0.5-1.1-1.1-1.1h-6.3c-0.6,0-1.1-0.5-1.1-1.1v-6.3
	c0-0.6-0.5-1.1-1.1-1.1h-2.1c-0.6,0-1.1-0.5-1.1-1.1V47.5c0-0.6-0.5-1.1-1.1-1.1h-2.1c-0.6,0-1.1-0.5-1.1-1.1V39
	c0-0.6-0.5-1.1-1.1-1.1H9.5c-0.6,0-1.1-0.5-1.1-1.1v-2.1c0-0.6,0.5-1.1,1.1-1.1h2c0.6,0,1.1-0.5,1.1-1.1v-2.1c0-0.6,0.5-1.1,1.1-1.1
	h2.1c0.6,0,1.1-0.5,1.1-1.1v-2.1c0-0.6,0.5-1.1,1.1-1.1H20c0.6,0,1.1-0.5,1.1-1.1v-6.3c0-0.6,0.5-1.1,1.1-1.1h2.1
	c0.6,0,1.1-0.5,1.1-1.1V9.5c0-0.6,0.5-1.1,1.1-1.1h2.1c0.6,0,1.1-0.5,1.1-1.1V5.3c0-0.6,0.5-1.1,1.1-1.1h2.1c0.6,0,1.1-0.5,1.1-1.1
	V1.1c0-0.6,0.5-1.1,1.1-1.1h19c0.6,0,1.1,0.5,1.1,1c0,0.7,0,1.4,0,2.1c0,0.6-0.5,1.1-1.1,1.1c-0.7,0-1.4,0-2.1,0
	c-0.6,0-1.1,0.5-1.1,1.1v2c0,0.6,0.5,1.1,1.1,1.1h2.1c0.6,0,1.1-0.5,1.1-1.1v-2C54.8,4.7,55.3,4.2,55.9,4.2L55.9,4.2z M39,8.3h2
	c0.6,0,1.1-0.5,1.1-1.1v-2c0-0.6-0.5-1.1-1.1-1.1h-2c-0.6,0-1.1,0.5-1.1,1.1v2C38,7.9,38.5,8.3,39,8.3z M82.7,42.4v-4.4
	c0-0.7-0.5-1.2-1.2-1.2h-4.4c-0.7,0-1.2,0.5-1.2,1.2v4.4c0,0.7,0.5,1.2,1.2,1.2h4.4C82.1,43.5,82.7,43,82.7,42.4z M6.8,18.6v-4.4
	c0-0.7-0.5-1.2-1.2-1.2H1.2C0.5,13,0,13.5,0,14.2v4.4c0,0.7,0.5,1.2,1.2,1.2h4.4C6.3,19.8,6.8,19.2,6.8,18.6z M75.9,47.3v-2.2
	c0-0.3-0.3-0.6-0.6-0.6h-2.2c-0.3,0-0.6,0.3-0.6,0.6v2.2c0,0.3,0.3,0.6,0.6,0.6h2.2C75.6,47.8,75.9,47.6,75.9,47.3z M10.2,61.8v-2.2
	c0-0.3-0.3-0.6-0.6-0.6H7.4c-0.3,0-0.6,0.3-0.6,0.6v2.2c0,0.3,0.3,0.6,0.6,0.6h2.2C9.9,62.4,10.2,62.1,10.2,61.8z"/>
</svg>
